<svg width="707" height="692" viewBox="0 0 707 692" fill="none" xmlns="http://www.w3.org/2000/svg">
<g clip-path="url(#clip0_201_369)">
<path d="M82.3749 391.25C82.3749 391.25 72.9999 393 69.8749 372.75C66.7499 352.5 62.6249 265.125 66.1249 261.875C74.4397 258.322 83.1155 255.681 91.9999 254C91.9999 254 91.9999 159.75 125.375 105.75C158.75 51.75 192.875 29.625 258.5 11.25C320.986 -4.14702 386.421 -2.85383 448.25 15C503.375 29.75 557 72.75 571.875 125C581.981 164.085 588.219 204.069 590.5 244.375C601.477 246.625 612.081 250.412 622 255.625C624.125 259.75 627.375 369.625 622 372.875C618.725 374.854 614.95 375.852 611.125 375.75C611.125 375.75 709.375 600.75 706 613.25C702.625 625.75 544.375 692.75 329.75 691.125C115.125 689.5 4.12493 623.5 0.249927 614.75C-3.62507 606 82.3749 391.25 82.3749 391.25Z" fill="#0B0C0E"/>
<path d="M118.5 295C118.5 295 111 199.375 134.75 146.125C156.237 103.063 189.93 67.2829 231.625 43.25C257.577 32.8003 285.067 26.6774 313 25.125C313.625 27.125 321.375 153 321.25 170.25C320.127 187.071 317.746 203.785 314.125 220.25C314.125 220.25 264.125 189.75 212.125 203C189.8 208.732 169.385 220.259 152.945 236.414C136.505 252.569 124.622 272.779 118.5 295Z" fill="#9BA0B0"/>
<path d="M329.375 223.25C329.375 223.25 336 177.125 336.125 162.125C336.25 147.125 326.125 26.8749 328.625 25.2499C336.353 23.4343 344.397 23.4343 352.125 25.2499C353 27.2499 365.5 171 368.125 190.5C370.589 200.474 371.723 210.729 371.5 221C365.634 225.812 358.384 228.626 350.807 229.03C343.229 229.435 335.721 227.41 329.375 223.25Z" fill="#9BA0B0"/>
<path d="M388 214C379.762 175.44 373.918 136.407 370.5 97.1249C368.375 51.8749 364.125 26.4999 369.75 24.2499C375.375 21.9999 453 26.3749 500 67.3749C547 108.375 550.75 137.5 547.625 138.125C544.5 138.75 516.125 125.625 514.625 128.5C513.125 131.375 512.75 138.5 515.375 140C518 141.5 549 153.75 550.625 155.75C552.258 159.556 553.433 163.542 554.125 167.625C542.1 161.742 529.544 157.012 516.625 153.5C515.125 155.625 513.75 165 516.625 166C519.5 167 554.125 182.25 554.125 182.25L555.5 192.125C555.5 192.125 520.125 177.375 518 177.875C515.875 178.375 513.5 187.875 516.125 189.375C518.75 190.875 555.625 205.125 556.75 207.25C557.875 209.375 561.875 224.25 561.875 224.25L540.5 217.5C540.5 217.5 544.375 228.375 546.5 230C548.625 231.625 562.75 235.25 562.875 239.5C564.447 253.321 565.281 267.215 565.375 281.125C563.875 281.125 537.875 200.5 500.25 192.5C462.625 184.5 388 214 388 214Z" fill="#9BA0B0"/>
<path d="M233.5 224.5C261.125 224.5 323.375 255.125 355.5 247.5C387.625 239.875 441.625 212.625 474.375 212.375C507.125 212.125 525.25 243.375 553.875 310.375C582.5 377.375 643.125 527.125 641.375 527.125C639.625 527.125 540.125 303.5 520.625 274.25C501.125 245 487.375 236.75 447.375 239.625C407.375 242.5 362.25 252.125 361.75 257.25C361.25 262.375 361.75 346.875 367.875 354.125C374 361.375 406.125 363 445.125 360.5C484.125 358 507.625 356.375 517.25 352.5C524.679 349.027 531.754 344.84 538.375 340L635.75 546C624.203 534.552 611.928 523.863 599 514C596.375 514.625 595.125 524 596.625 525C598.125 526 642.5 566.625 646.625 571.25C654.672 581.331 661.432 592.374 666.75 604.125C665.25 606.25 661.125 611 658.5 610C655.875 609 596 538.625 591.125 537.125C586.25 535.625 585.5 544.625 585.5 544.625C585.5 544.625 650.25 613.375 648.75 615C644.142 617.729 639.337 620.111 634.375 622.125C634.375 622.125 580.125 559.625 578.125 560.375C576.125 561.125 569.5 567.875 573.125 570.5C591.252 587.54 608.246 605.745 624 625C619.161 627.116 614.141 628.789 609 630C594.956 613.683 580.017 598.159 564.25 583.5C561.125 583.5 556.625 588.375 558.125 590.375C559.625 592.375 599.875 631.5 598.375 633.625C593.806 635.898 588.916 637.457 583.875 638.25C583.875 638.25 553 605.875 550.75 605.875C548.5 605.875 541.5 609.75 544.125 613.375C546.75 617 574 640.75 572.5 641.875C568.428 643.102 564.238 643.898 560 644.25C558.375 644.25 535 619.25 532.25 619.25C529.5 619.25 522.5 621.625 524.125 625.25C525.75 628.875 547 647.625 544.5 649.25C542 650.875 479.875 670 347.5 668.125C215.125 666.25 162 645 162 645C145.371 628.567 127.755 613.163 109.25 598.875C104.625 598.875 99.5 606.375 101.625 607.875C114.244 617.91 126.186 628.767 137.375 640.375C135.375 640.375 96.5 628.875 83.375 626.625C73.6211 625.558 64.0914 622.985 55.125 619C55.125 617.375 130.125 438.375 133.5 438.875C136.875 439.375 187.125 564.75 187.125 564.75C185.693 571.582 186.358 578.687 189.035 585.134C191.712 591.58 196.275 597.067 202.125 600.875C209.138 603.788 216.734 605.022 224.308 604.479C231.882 603.937 239.224 601.632 245.75 597.75L439.625 598.75C441.125 598.75 472.75 614.625 485.75 590.25C498.75 565.875 491.25 556.875 491.25 556.875C491.25 556.875 541.25 416 538.25 412.875C531.198 410.25 523.77 408.773 516.25 408.5C516.25 408.5 481.875 537.5 478.75 537.625C475.625 537.75 463 533.875 457.75 533.375C454.842 533.053 451.908 533.053 449 533.375L380.5 438.125C380.5 438.125 394.25 363.125 339.5 363.125C284.75 363.125 300.25 438.125 300.25 438.125C300.25 438.125 287.75 437.375 275.25 457C262.75 476.625 232.875 535.625 232.875 535.625C226.728 535.266 220.57 536.116 214.75 538.125C206.5 541.5 201.375 544.25 201.375 544.25C201.375 544.25 157.125 440.625 158.125 438.5C159.125 436.375 168.375 411.625 173.125 411.5C177.875 411.375 209.75 416.375 222.25 416.625C234.75 416.875 236.75 415.25 237.25 413.125C237.75 411 240.625 403.125 238.5 403.125C236.375 403.125 174.625 396 170 396C165.375 396 156.625 422.75 153 423.875C149.375 425 136.5 427 138 423.875C139.5 420.75 165 359.75 166.625 360.125C168.25 360.5 260.75 373.5 288.25 368.125C315.75 362.75 322.75 354.25 326.625 341.125C330.551 313.852 331.598 286.242 329.75 258.75C305.009 249.014 278.815 243.48 252.25 242.375C217.375 241.25 193.875 240.75 178.875 265.125C163.875 289.5 44 611.5 41.875 612.125C37.8978 611.432 34.0305 610.213 30.375 608.5C30.375 608.5 91.75 433.5 115.125 367.75C138.5 302 158.5 223.25 233.5 224.5Z" fill="#9BA0B0"/>
<path d="M312.5 449.75C321.861 450.469 331.264 450.469 340.625 449.75L369.25 448.625C369.25 448.625 364.375 569.5 369.25 570.5C374.125 571.5 377.625 573.875 377.5 569.75C377.375 565.625 375.125 472.875 378.25 472.375C381.375 471.875 387.625 491.375 387.625 491.375C387.625 491.375 385.875 571.625 387.625 572.125C389.375 572.625 398.625 575.5 398.125 572.875C397.625 570.25 398.125 513.5 398.125 513.5L416 541.75L406.125 542.5C406.125 542.5 405.125 567.5 408.25 567.5C411.204 567.721 414.171 567.721 417.125 567.5C418.625 567.5 418.5 582 418.5 582C418.5 582 327.75 579.625 296 580.375C264.25 581.125 261.75 581.75 261.75 581.75C260.76 573.112 258.441 564.679 254.875 556.75L247.125 540.75C247.125 540.75 307.875 451.375 312.5 449.75Z" fill="#9BA0B0"/>
<path d="M335.125 460.125C338.625 458.875 345 459.375 345.625 461.375C346.25 463.375 350.75 566.5 347.75 569.25C344.75 572 336.75 571 336.75 569.25C336.75 567.5 333.625 460.625 335.125 460.125Z" fill="#0B0C0E"/>
<path d="M312.25 461.75C314.875 460.625 321 459.375 322.125 461.75C323.25 464.125 329 569.375 326.875 570C324.75 570.625 316 572.25 316 570C316 567.75 312.25 461.75 312.25 461.75Z" fill="#0B0C0E"/>
<path d="M290.5 506C291.25 504.25 301.375 501 301.375 503.125C303.353 524.942 304.229 546.845 304 568.75C300.756 569.435 297.435 569.688 294.125 569.5C294.125 569.5 289.375 508.5 290.5 506Z" fill="#0B0C0E"/>
<path d="M268.625 531C268.625 528.875 275.75 523 276.75 524.625C279.612 538.81 280.704 553.296 280 567.75C276.775 568.663 273.467 569.249 270.125 569.5C270.125 569.5 268.125 533.5 268.625 531Z" fill="#0B0C0E"/>
<path d="M468.375 391.25C470.75 390 503.25 389.25 525.625 386.625C532.944 384.978 540.386 383.933 547.875 383.5C550.5 383.5 553.875 394.375 552.375 396C534.809 401.134 516.666 404.032 498.375 404.625C480.125 404.625 469.75 404.625 469.75 404.625C469.75 404.625 463.75 393.375 468.375 391.25Z" fill="#0B0C0E"/>
<path d="M478 425.875C482.25 424.75 495.625 444.75 495.625 444.75C495.625 444.75 493.25 454.625 490.625 452.625C483.63 446.559 477.34 439.725 471.875 432.25C470.875 429.625 475.5 426.5 478 425.875Z" fill="#0B0C0E"/>
<path d="M458.125 442C461.75 440.75 486.875 464.25 485.875 467C484.875 469.75 484 474.875 482.375 474.375C471.552 466.42 461.394 457.6 452 448C451.5 445.25 456.625 442.5 458.125 442Z" fill="#0B0C0E"/>
<path d="M445.625 460.5C445.625 460.5 477.5 485.5 476.5 489.5C475.463 492.517 473.943 495.345 472 497.875C472 497.875 435.375 468.125 436.875 465.375C438.375 462.625 443.5 462.125 445.625 460.5Z" fill="#0B0C0E"/>
<path d="M133.625 551C136.125 551.875 168.75 579.875 168.875 585C169 590.125 167.5 592.875 165.875 592.875C152.988 583.825 140.749 573.884 129.25 563.125C128.625 561 131 550 133.625 551Z" fill="#0B0C0E"/>
<path d="M123.875 577.25C123.875 577.25 171.75 616.75 171.75 619.375C171.75 622 170.375 627.75 168.875 627.75C150.966 616.213 133.921 603.388 117.875 589.375C117.375 586.25 123.875 577.25 123.875 577.25Z" fill="#0B0C0E"/>
<path d="M156.375 158.5C154.25 155.5 161.875 129.75 176 109.625C190.125 89.5001 203.375 78.1251 209.125 79.6251C214.875 81.1251 218.75 87.2501 216.625 89.8751C202.119 98.3115 190.324 110.714 182.625 125.625C172.75 148.75 175.75 163.125 172.625 163.875C166.722 164.215 160.911 162.293 156.375 158.5Z" fill="#0B0C0E"/>
<path d="M513.625 111.375C520.829 111.505 527.816 113.863 533.625 118.125C534.75 121.25 537 128.5 532.25 127.625C526.143 125.841 520.17 123.627 514.375 121C512.25 120.25 510.5 112 513.625 111.375Z" fill="#0B0C0E"/>
</g>
<defs>
<clipPath id="clip0_201_369">
<rect width="707" height="692" fill="white"/>
</clipPath>
</defs>
</svg>
